<?xml version="1.0" standalone="no"?>
<!DOCTYPE svg PUBLIC "-//W3C//DTD SVG 20010904//EN"
 "http://www.w3.org/TR/2001/REC-SVG-20010904/DTD/svg10.dtd">
<svg version="1.0" xmlns="http://www.w3.org/2000/svg"
 width="84.000000pt" height="84.000000pt" viewBox="0 0 84.000000 84.000000"
 preserveAspectRatio="xMidYMid meet">
<metadata>
Created by potrace 1.16, written by Peter Selinger 2001-2019
</metadata>
<g transform="translate(0.000000,84.000000) scale(0.100000,-0.100000)"
fill="#000000" stroke="none">
<path d="M295 789 c-244 -79 -343 -379 -196 -593 67 -97 179 -157 301 -161 41
-2 65 -1 53 2 -27 5 -30 18 -7 31 14 8 14 10 -1 22 -14 12 -18 12 -25 0 -5 -8
-12 -11 -17 -6 -4 4 0 12 10 17 9 6 15 14 12 18 -2 5 5 11 16 14 12 3 18 10
15 15 -5 9 63 37 75 30 3 -2 13 3 22 10 13 11 21 10 49 -4 18 -9 44 -26 56
-38 l24 -21 34 39 c85 98 117 249 79 371 -66 208 -291 322 -500 254z m114
-123 c13 -13 38 -27 56 -30 20 -4 40 -17 50 -33 12 -17 20 -22 24 -14 5 8 24
-6 55 -39 46 -49 52 -77 15 -67 -15 4 -19 0 -19 -20 0 -20 4 -23 19 -18 14 4
23 0 31 -14 9 -18 7 -21 -15 -27 -19 -5 -25 -13 -25 -33 0 -19 3 -22 9 -12 13
20 31 4 31 -28 0 -21 -12 -38 -48 -68 -64 -54 -112 -83 -139 -83 -26 0 -39 15
-22 26 9 5 7 11 -5 20 -16 11 -16 13 3 19 24 7 25 13 7 38 -13 16 -14 16 -20
-8 -7 -29 -22 -32 -53 -10 -26 18 -27 55 -1 55 9 0 19 4 23 10 3 5 12 7 19 4
7 -3 19 2 26 11 11 14 10 17 -8 22 -12 3 -22 9 -22 13 0 4 -10 10 -22 13 -21
6 -20 7 12 30 87 58 118 71 145 59 35 -16 45 -15 45 4 0 21 -58 94 -75 94 -7
0 -15 6 -18 14 -3 8 -16 20 -28 26 -20 11 -21 10 -17 -8 5 -17 0 -21 -28 -24
-38 -4 -44 4 -44 63 0 45 8 48 39 15z m19 -96 c33 0 52 -6 69 -22 30 -28 29
-43 -3 -46 -14 -1 -34 -6 -44 -12 -10 -5 -30 -10 -45 -10 -21 0 -24 3 -17 17
12 21 -11 48 -33 39 -9 -3 -31 2 -50 11 -35 17 -35 18 -29 63 4 25 9 49 11 53
3 5 25 -14 50 -42 41 -47 48 -51 91 -51z"/>
</g>
</svg>
